<svg version="1.0" xmlns="http://www.w3.org/2000/svg" width="682.667" height="682.667" viewBox="0 0 512 512"><path d="M135.7 2 133 4.1v18.5c0 10.1-.4 18.4-.8 18.4s-5.9-1.7-12.2-3.8c-6.3-2.2-15.9-5-21.2-6.2L89 28.6l-2.7 2.1-2.8 2-.3 53.4-.2 53.5-12.9 3.6c-7.1 2-17.6 5.5-23.5 7.8-10.4 4.1-13.6 6.5-13.6 10.2 0 1.6-1 1.8-7.7 1.8-13.3 0-20 3-23.4 10.4C.1 177.3 0 182.6 0 294.8c0 75.8.4 118 1 119.2.5 1 2.6 2.4 4.6 3 3.2 1.1 3.9 1 6.3-.7l2.6-2 .5-117.4.5-117.4 8.2-.3 8.3-.3v147.6c0 157.3-.2 152.1 4.5 153.9.9.3 99.9.6 220 .6 213.4 0 218.3 0 220.6-1.9l2.4-1.9.3-149.1.2-149.1h7.9c6.3 0 8 .3 8.5 1.6.3.9.6 71.9.6 157.9 0 153.6 0 156.4-1.9 157.5-1.3.7-37.1 1-109 1H279.2l-3-2.5c-11.1-9.4-29.3-9.4-40.4 0l-3 2.5H125.1c-82.4 0-108-.3-108.9-1.2-.9-.9-1.2-7.2-1.2-22.3 0-18.9-.2-21.4-1.8-22.8-3-2.7-8.3-2.6-11.2.3-1.9 1.9-2 3.3-2 24.5 0 20.2.2 23 1.9 26.3 2.3 4.6 4.6 6.7 9.4 8.7 3.2 1.3 17.1 1.5 115.7 1.5h112l3.7-3.4c5.4-4.7 7.5-5.6 13.5-5.6 5.5 0 7.4.8 13.6 6.2l3.3 2.8h112.2c106.7 0 112.4-.1 116.2-1.9 4.8-2.2 6.9-4.4 9-9.4 1.3-3.2 1.5-21.9 1.5-163.4 0-153.7-.1-160-1.9-163.9-3.3-7.4-10.1-10.4-23.2-10.4h-7.6l-.6-3c-.8-3.8-3.6-5.6-17.6-10.6l-11.6-4.2-.3-26.1-.2-26-2.7-2c-2-1.7-4-2.1-9.2-2.1-8.7 0-28.1 1.7-40.4 3.5-44.8 6.6-92.1 26-125.9 51.7-8.6 6.5-8.2 6.7-9.3-3.7-.9-8.8-5.1-27-8.7-37.7C236.5 53.4 204.5 20 159.1 5c-15.8-5.2-19.9-5.8-23.4-3zm31.5 22c35.1 15.1 60.9 46.8 73.3 90 7.4 25.7 6.9 16.6 7.3 154.3l.3 123.8-6-11.5c-3.2-6.3-8.5-15.2-11.7-19.8-7.4-10.5-24.7-27.8-34.4-34.3-10.8-7.2-26.2-14.7-37.9-18.5l-10.1-3.2V17.1l5.2 1.6c2.9.8 9.2 3.2 14 5.3zm-55 26.4c7.3 2.4 15 5.1 17.1 6L133 58v127.8c0 111.9.2 128 1.5 129.9 1 1.4 3.4 2.5 6.7 3.2 15.5 3.3 35.1 11.8 47.5 20.7 21.5 15.4 38.7 39.3 48.7 68.1 3.3 9.7 8 27.3 7.3 27.9-.1.2-3-3.4-6.4-7.9-32.6-43.5-78.6-75.8-128.3-90.2l-11.5-3.3-.3-144.1c-.1-79.3 0-144.1.3-144.1s6.5 2 13.7 4.4zm322 93.5c.3 37.6.4 40 2.2 42 1.3 1.4 3.1 2.1 5.7 2.1 5.9 0 6.9-2.3 6.9-15.2 0-8 .3-10.8 1.3-10.8.6 0 4 1 7.5 2.2l6.2 2.2v272.8l-2.2-.5c-1.3-.2-6.6-1.6-11.8-3.1-13-3.6-33-7.2-48-8.7-14.7-1.4-47.1-.6-60 1.5-4.7.8-8.6 1.3-8.8 1.1-.6-.5 20-7.9 30.9-11 21.3-6.2 40.9-9.3 65.1-10.4 13.3-.6 16-.9 17.7-2.5 2.1-1.9 2.1-2.1 2.1-92.1 0-89.1 0-90.2-2-92-2.8-2.5-7.6-2.3-10.3.4l-2.2 2.2-.3 84.4-.2 84.5h-5.4c-14.4 0-38.3 3.5-59.6 8.7-33.8 8.2-69.4 24.6-96 44.3-4.4 3.3-8.2 6-8.5 6-.3 0-.5-63.6-.5-141.4V169.2l5.3-4.7c18.2-16 48.8-33.6 75.7-43.5 25.1-9.2 58.9-15.9 85.2-16.9l3.7-.1.3 39.9zM83 249.8c0 88.2.1 94 1.8 95.5.9.8 6.2 2.7 11.8 4.1 41.2 10.4 77.7 31.6 108.6 63.2 9.4 9.6 23.9 26.8 27.2 32.6l1.7 2.7-5.8-2.6c-26.9-11.9-54.4-18-86.4-19-27.7-.9-50.3 1.7-77.4 8.8-6.6 1.7-13 3.3-14.2 3.6l-2.3.5v-273l15.3-5.1c8.3-2.7 16.2-5 17.5-5.1H83v93.8zm87.5 194.1c21.1 3.6 41.7 10.1 57.5 18.2l7.5 3.8-93.7.1H48v-10.7l12.8-3.6c17.9-5.1 30.6-7.5 54.2-10.1 9.5-1.1 44 .4 55.5 2.3zm245.7 0c14.7 2.4 17.9 3.1 35.1 7.8l12.7 3.6V466l-93.7-.1-93.8-.1 10-4.8c18.3-9 44.6-16.3 67.6-18.9 13.3-1.5 47.3-.5 62.1 1.8z"/></svg>